<svg xmlns="http://www.w3.org/2000/svg" xmlns:xlink="http://www.w3.org/1999/xlink" width="1920" height="1080" viewBox="0 0 1920 1080">
  <defs>
    <linearGradient id="linear-gradient" y1="1.208" x2="1.01" y2="0.736" gradientUnits="objectBoundingBox">
      <stop offset="0" stop-color="#68d5b0"/>
      <stop offset="0.473" stop-color="#36868f"/>
      <stop offset="1" stop-color="#1a4348"/>
    </linearGradient>
    <clipPath id="clip-path">
      <rect id="Rectangle_1485" data-name="Rectangle 1485" width="1920" height="1080" fill="none" stroke="#707070" stroke-width="1"/>
    </clipPath>
    <clipPath id="clip-path-2">
      <rect id="Rectangle_180" data-name="Rectangle 180" width="338" height="165" transform="translate(791 612)" fill="rgba(255,255,255,0)"/>
    </clipPath>
    <clipPath id="clip-path-3">
      <rect id="Mask" width="338" height="116" transform="translate(791 635)" fill="#45de82" opacity="0"/>
    </clipPath>
    <filter id="Rectangle_4" x="778" y="502" width="368" height="86" filterUnits="userSpaceOnUse">
      <feOffset dx="2" dy="5" input="SourceAlpha"/>
      <feGaussianBlur stdDeviation="5" result="blur"/>
      <feFlood flood-opacity="0.161"/>
      <feComposite operator="in" in2="blur"/>
      <feComposite in="SourceGraphic"/>
    </filter>
    <filter id="LOGIN" x="913" y="514" width="99" height="55" filterUnits="userSpaceOnUse">
      <feOffset dy="3" input="SourceAlpha"/>
      <feGaussianBlur stdDeviation="3" result="blur-2"/>
      <feFlood flood-opacity="0.161"/>
      <feComposite operator="in" in2="blur-2"/>
      <feComposite in="SourceGraphic"/>
    </filter>
    <clipPath id="clip-path-4">
      <rect id="Rectangle_179" data-name="Rectangle 179" width="69" height="24" transform="translate(11)" fill="rgba(255,255,255,0)"/>
    </clipPath>
    <clipPath id="clip-Pre-Login_Page">
      <rect width="1920" height="1080"/>
    </clipPath>
  </defs>
  <g id="Pre-Login_Page" data-name="Pre-Login Page" clip-path="url(#clip-Pre-Login_Page)">
    <rect width="1920" height="1080" fill="#00ffa8"/>
    <rect id="SVGID" width="1920" height="1080" fill="url(#linear-gradient)"/>
    <g id="Mask_Group_28" data-name="Mask Group 28" clip-path="url(#clip-path)">
      <path id="Path_4" data-name="Path 4" d="M3646.284,1385.7c-72.9.007-146.391-25.734-202.671-62.369-83.135-54.112-147.818-131.48-210.786-206.732-16.947-20.26-34.607-41.029-52.191-61.145-67.554-77.319-173.555-183.458-306.788-205.442-132.768-21.891-262.186,40.119-385.947,99.761-13.649,6.582-26.793,13.057-40.307,19.453-185.413,87.742-325.169,100.017-430.273,37.056-78.835-47.215-125.285-131.635-170.826-213.8-52.76-95.2-103.823-186.283-198.8-223.969-123.339-48.932-263.2,22.069-356.378,79.3-8.048,4.943-15.419,9.737-23.539,14.766-101.677,63-206,127.641-323.143,119.049C767.294,768.616,657.65,590.4,618.082,513.808c-22.6-43.753-42.338-90.021-61.71-134.683-38.538-88.822-78.6-180.983-140.226-257.05C324.083,8.409,151.373-65.052,26.552,9.591l-.839-1.448C152.207-67.508,324.021,6.1,417.049,120.952c61.924,76.453,101.878,168.523,140.508,257.567,19.358,44.6,39.368,90.725,61.916,134.378,39.289,76.06,149.615,254.362,325.156,267.231,115.957,8.52,220.617-56.329,321.815-119.025q12.19-7.554,24.259-14.987c93.837-57.646,233.022-128.526,357.856-79,96.169,38.166,148.635,132.84,199.377,224.4,45.312,81.754,92.163,166.3,170.175,213.02,104.01,62.3,244.125,50.2,428.372-37.007,13.506-6.4,27.084-12.941,40.727-19.509,124.262-59.892,252.759-121.83,386.636-99.717,134.371,22.17,240.212,128.075,308.13,205.809,17.606,20.145,35.147,41.113,52.116,61.394,62.8,75.044,127.732,152.649,210.409,206.467,96.871,63.04,247.931,94.309,350.709,13.964l.711,1.277C3751.64,1371.833,3700.188,1385.7,3646.284,1385.7Z" transform="translate(-129.949 -30.887)" fill="#fff" stroke="#707070" stroke-width="0.3" opacity="0.2"/>
    </g>
    <g id="Ellipse_6" data-name="Ellipse 6" transform="translate(214 761)" fill="none" stroke="#f0b000" stroke-width="0.8">
      <circle cx="73" cy="73" r="73" stroke="none"/>
      <circle cx="73" cy="73" r="72.6" fill="none"/>
    </g>
    <g id="Ellipse_8" data-name="Ellipse 8" transform="translate(1545 180)" fill="none" stroke="#f0b000" stroke-width="0.8">
      <circle cx="56" cy="56" r="56" stroke="none"/>
      <circle cx="56" cy="56" r="55.6" fill="none"/>
    </g>
    <g id="Ellipse_7" data-name="Ellipse 7" transform="translate(1671 867)" fill="none" stroke="#fff" stroke-width="0.8">
      <circle cx="20" cy="20" r="20" stroke="none"/>
      <circle cx="20" cy="20" r="19.6" fill="none"/>
    </g>
    <g id="Ellipse_9" data-name="Ellipse 9" transform="translate(360 229)" fill="none" stroke="#fff" stroke-width="0.8">
      <circle cx="35.5" cy="35.5" r="35.5" stroke="none"/>
      <circle cx="35.5" cy="35.5" r="35.1" fill="none"/>
    </g>
    <g id="Mask_Group_10" data-name="Mask Group 10" clip-path="url(#clip-path-2)">
      <g id="Login_group" data-name="Login group" transform="translate(0 -139)">
        <text id="Don_t_have_account_" data-name="Don&apos;t have account?" transform="translate(942 689)" fill="#fff" font-size="14" font-family="SegoeUI-Light, Segoe UI" font-weight="300" opacity="0.4"><tspan x="0" y="0">Don&apos;t have account?</tspan></text>
        <text id="Forgot_Password_" data-name="Forgot Password?" transform="translate(791 689)" fill="#fff" font-size="14" font-family="SegoeUI-Light, Segoe UI" font-weight="300" opacity="0.4"><tspan x="0" y="0">Forgot Password?</tspan></text>
        <text id="Sign_up" data-name="Sign up" transform="translate(1082 689)" fill="#fff" font-size="14" font-family="SegoeUI-Light, Segoe UI" font-weight="300" opacity="0.8"><tspan x="0" y="0">Sign up</tspan></text>
        <g id="Login_Button" data-name="Login Button" clip-path="url(#clip-path-3)">
          <g id="Login_Button-2" data-name="Login Button" transform="translate(0 -71)">
            <g transform="matrix(1, 0, 0, 1, 0, 210)" filter="url(#Rectangle_4)">
              <rect id="Rectangle_4-2" data-name="Rectangle 4" width="338" height="56" rx="10" transform="translate(791 512)" fill="#45de82"/>
            </g>
            <g transform="matrix(1, 0, 0, 1, 0, 210)" filter="url(#LOGIN)">
              <text id="LOGIN-2" data-name="LOGIN" transform="translate(922 550)" fill="#fff" font-size="28" font-family="SegoeUI, Segoe UI"><tspan x="0" y="0">LOGIN</tspan></text>
            </g>
          </g>
        </g>
      </g>
      <g id="Toggle_Language" data-name="Toggle Language" transform="translate(920 465)">
        <path id="Path_277" data-name="Path 277" d="M12,0H68a12,12,0,0,1,0,24H12A12,12,0,0,1,12,0Z" fill="#374775"/>
        <g id="Mask_Group_9" data-name="Mask Group 9" clip-path="url(#clip-path-4)">
          <text id="En_Fa" data-name="En
Fa" transform="translate(40 18)" fill="#fff" font-size="18" font-family="SegoeUI, Segoe UI"><tspan x="-9.646" y="0">En</tspan><tspan x="-8.666" y="24">Fa</tspan></text>
          <g id="world" transform="translate(60.41 4.41)">
            <path id="Path_269" data-name="Path 269" d="M4.866,2.979a4.01,4.01,0,0,1,.9,1.261c.227.466.73,1.764.269,2.5C5.511,7.565,4,7.845,4,8.609c0,.575.663,1.231,1.016,1.872a2.653,2.653,0,0,1,0,2.5,2.141,2.141,0,0,1-.657.77" transform="translate(-1.08 -0.973)" fill="none" stroke="#fff" stroke-miterlimit="10" stroke-width="1"/>
            <path id="Path_270" data-name="Path 270" d="M15.913,3.165a12.13,12.13,0,0,1-2.88.9c-.531.038-.61-.4-1.016-1.016C11.711,2.586,11,2.006,11,1.525a1.547,1.547,0,0,1,.067-.491" transform="translate(-3.368 -0.017)" fill="none" stroke="#fff" stroke-miterlimit="10" stroke-width="1"/>
            <circle id="Ellipse_89" data-name="Ellipse 89" cx="7" cy="7" r="7" transform="translate(0.59 0.59)" fill="none" stroke="#fff" stroke-linecap="square" stroke-miterlimit="10" stroke-width="1"/>
            <path id="Path_271" data-name="Path 271" d="M15.564,11.428c.021,1.567-2.018,3.522-3.056,3.1-.91-.371-.268-1.086-.5-3.1-.1-.836.8-1.525,1.779-1.525A1.674,1.674,0,0,1,15.564,11.428Z" transform="translate(-3.987 -3.03)" fill="none" stroke="#fff" stroke-miterlimit="10" stroke-width="1"/>
          </g>
        </g>
      </g>
    </g>
  </g>
</svg>
