<svg xmlns="http://www.w3.org/2000/svg" width="102.622" height="72.65" viewBox="0 0 102.622 72.65">
  <g id="Logo" transform="translate(-678.433 -498.827)">
    <g id="Group_9" data-name="Group 9" transform="translate(679.101 563.586)">
      <g id="Group_6" data-name="Group 6" transform="translate(0 0)">
        <g id="Group_5" data-name="Group 5">
          <path id="Path_1" data-name="Path 1" d="M733.55,1883.124a1.938,1.938,0,0,1-1.342-.368,1.02,1.02,0,0,1-.259-.782v-3.557h.752v3.227q0,.523.176.64a1.831,1.831,0,0,0,.673.087Z" transform="translate(-731.949 -1877.134)" fill="#83a79a"/>
          <path id="Path_2" data-name="Path 2" d="M760.424,1896.739h-.246a1.559,1.559,0,0,1-1.045-.293,1.194,1.194,0,0,1-.723.293h-1.237v-.748a7.6,7.6,0,0,0,1.312-.054q.251-.088.251-.671v-.888h.752v1.035q0,.558.936.578Zm-1.638-3.544a.515.515,0,0,1-.152.376.5.5,0,0,1-.37.155q-.573,0-.573-.531,0-.447.544-.447T758.785,1893.194Z" transform="translate(-755.914 -1890.749)" fill="#83a79a"/>
          <path id="Path_3" data-name="Path 3" d="M819.738,1927.789a3.953,3.953,0,0,1-.69-.038,1.276,1.276,0,0,1-.38-.255,1.136,1.136,0,0,1-.715.293h-1.622v-.748h1.392a.586.586,0,0,0,.435-.128.652.652,0,0,0,.121-.45v-1.035h.752v1.035a.557.557,0,0,0,.175.49,1.077,1.077,0,0,0,.531.088Zm-2.111,1.434a.411.411,0,0,1-.138.318.474.474,0,0,1-.33.126.575.575,0,0,1-.364-.117.389.389,0,0,1-.167-.326q0-.414.481-.414Q817.628,1928.809,817.628,1929.223Zm1.442,0a.411.411,0,0,1-.138.318.474.474,0,0,1-.33.126.575.575,0,0,1-.364-.117.39.39,0,0,1-.167-.326q0-.414.481-.414Q819.07,1928.809,819.07,1929.223Z" transform="translate(-812.123 -1921.799)" fill="#83a79a"/>
          <path id="Path_4" data-name="Path 4" d="M884.235,1926.581a1.478,1.478,0,0,1-.255.9.961.961,0,0,1-.828.389,1.411,1.411,0,0,1-1.016-.506,1.216,1.216,0,0,1-.915.506,1.409,1.409,0,0,1-1.024-.6,1.3,1.3,0,0,1-.982.518h-.957v-.748h.9q.522,0,.523-.561v-1.052h.736v1.113a.565.565,0,0,0,.192.441.671.671,0,0,0,.464.173q.514,0,.514-.471v-1.256h.736v1.113a.57.57,0,0,0,.19.439.654.654,0,0,0,.458.175q.527,0,.527-.471v-1.256h.736Z" transform="translate(-870.96 -1921.799)" fill="#83a79a"/>
          <path id="Path_5" data-name="Path 5" d="M1055.006,1894.877a1.279,1.279,0,0,1-.3.84.98.98,0,0,1-.786.385h-3.971a.976.976,0,0,1-.79-.376,1.291,1.291,0,0,1-.289-.848v-1.137h.752v1.035a.661.661,0,0,0,.119.448.575.575,0,0,0,.433.13h3.511a.591.591,0,0,0,.437-.13.646.646,0,0,0,.123-.448v-1.035h.761Zm-3.436-2.391a.43.43,0,0,1-.138.324.466.466,0,0,1-.334.132q-.527,0-.527-.456,0-.41.476-.41Q1051.57,1892.076,1051.57,1892.486Zm1.442,0a.427.427,0,0,1-.14.324.473.473,0,0,1-.337.132q-.522,0-.522-.456,0-.41.476-.41Q1053.012,1892.076,1053.012,1892.486Z" transform="translate(-1033.062 -1890.112)" fill="#83a79a"/>
          <path id="Path_6" data-name="Path 6" d="M1189.489,1883.124a1.938,1.938,0,0,1-1.342-.368,1.022,1.022,0,0,1-.259-.782v-3.557h.752v3.227q0,.523.175.64a1.834,1.834,0,0,0,.673.087Z" transform="translate(-1165.146 -1877.134)" fill="#83a79a"/>
          <path id="Path_7" data-name="Path 7" d="M1216.478,1880.894h-2.78v-.748h.644v-4.075h.752v2.688q.723-.857,1.288-.857a1.152,1.152,0,0,1,.961.514,1.76,1.76,0,0,1,.343,1.074,1.563,1.563,0,0,1-.292.986A1.088,1.088,0,0,1,1216.478,1880.894Zm-.033-2.244q-.368,0-.849.573a3.6,3.6,0,0,0-.581.923h1.463q.434,0,.435-.681Q1216.913,1878.65,1216.445,1878.65Z" transform="translate(-1189.669 -1874.905)" fill="#83a79a"/>
          <path id="Path_8" data-name="Path 8" d="M1311.415,1883.124a1.938,1.938,0,0,1-1.342-.368,1.02,1.02,0,0,1-.259-.782v-3.557h.752v3.227q0,.523.175.64a1.831,1.831,0,0,0,.673.087Z" transform="translate(-1280.99 -1877.134)" fill="#83a79a"/>
          <path id="Path_9" data-name="Path 9" d="M1340.212,1927.789h-.234a1.438,1.438,0,0,1-.974-.293,1.19,1.19,0,0,1-.719.293h-1.237v-.748a7.591,7.591,0,0,0,1.313-.054q.25-.088.251-.675v-.884h.765v1.035a.49.49,0,0,0,.251.49,1.735,1.735,0,0,0,.585.088Zm-1.777,1.362a.514.514,0,0,1-.522.523q-.564,0-.564-.523,0-.447.539-.447T1338.435,1929.152Z" transform="translate(-1306.865 -1921.799)" fill="#83a79a"/>
          <path id="Path_10" data-name="Path 10" d="M1397.216,1895.514a1.3,1.3,0,0,1-.288.844.97.97,0,0,1-.786.38h-1.609v-.748h1.375a.587.587,0,0,0,.435-.128.654.654,0,0,0,.121-.45v-1.035h.752Zm-1.011-2.353a.421.421,0,0,1-.14.322.479.479,0,0,1-.336.13.6.6,0,0,1-.368-.113.412.412,0,0,1-.163-.338q0-.414.485-.414Q1396.2,1892.747,1396.2,1893.161Zm1.442,0a.421.421,0,0,1-.14.322.479.479,0,0,1-.337.13.594.594,0,0,1-.368-.113.411.411,0,0,1-.163-.338q0-.414.485-.414Q1397.647,1892.747,1397.647,1893.161Z" transform="translate(-1361.484 -1890.749)" fill="#83a79a"/>
          <path id="Path_11" data-name="Path 11" d="M1461.308,1927.66a2.08,2.08,0,0,1-.519,1.421,1.739,1.739,0,0,1-1.362.61h-1l-.121-.774h.848a1.641,1.641,0,0,0,.932-.259.94.94,0,0,0,.452-.823v-2.407h.773Z" transform="translate(-1422.072 -1921.799)" fill="#83a79a"/>
          <path id="Path_12" data-name="Path 12" d="M1544.762,1880.894h-.735v-4.823h.735Z" transform="translate(-1503.52 -1874.905)" fill="#83a79a"/>
          <path id="Path_13" data-name="Path 13" d="M1626.246,1915.491a1.809,1.809,0,0,1-.8,1.63,1.866,1.866,0,0,1-1.045.31h-1.166a1.639,1.639,0,0,1-1.288-.589,1.984,1.984,0,0,1-.493-1.35v-1.555h.706v1.638a1.033,1.033,0,0,0,.368.819,1.271,1.271,0,0,0,.857.3h.97a1.217,1.217,0,0,0,.794-.288.91.91,0,0,0,.376-.736q0-.372-.514-.489a1.115,1.115,0,0,0-.188-.029h-1.045v-1.292a1.313,1.313,0,0,1,.372-.959,1.285,1.285,0,0,1,.958-.378h.9l.029.706h-.9a.56.56,0,0,0-.56.36,3.3,3.3,0,0,0-.092.857,4.136,4.136,0,0,1,1.187.109A.894.894,0,0,1,1626.246,1915.491Z" transform="translate(-1577.088 -1909.539)" fill="#83a79a"/>
          <path id="Path_14" data-name="Path 14" d="M1729.71,1927.66a2.08,2.08,0,0,1-.519,1.421,1.74,1.74,0,0,1-1.363.61h-1l-.121-.774h.849a1.641,1.641,0,0,0,.932-.259.94.94,0,0,0,.452-.823v-2.407h.773Z" transform="translate(-1677.086 -1921.799)" fill="#83a79a"/>
          <path id="Path_15" data-name="Path 15" d="M1804.914,1915.466a1.682,1.682,0,0,1-.566,1.279,1.881,1.881,0,0,1-1.323.526h-.974l-.1-.748h.949a1.291,1.291,0,0,0,.886-.309,1.127,1.127,0,0,0,.372-.841,2.81,2.81,0,0,1-1.367-.251,1.28,1.28,0,0,1-.568-1.2,1.667,1.667,0,0,1,.447-1.327,1.423,1.423,0,0,1,.919-.234,1.117,1.117,0,0,1,1.145.719,4.3,4.3,0,0,1,.176,1.446Zm-.752-.849v-.775q0-.738-.589-.738a.494.494,0,0,0-.485.243,1.406,1.406,0,0,0-.088.583.576.576,0,0,0,.38.612A2.648,2.648,0,0,0,1804.162,1914.617Z" transform="translate(-1748.583 -1909.38)" fill="#83a79a"/>
          <path id="Path_16" data-name="Path 16" d="M1860.277,1853.444h-1.885a4.354,4.354,0,0,0-.439.038.509.509,0,0,0-.255.084,1.315,1.315,0,0,0-.259.418l-.681-.268a2.244,2.244,0,0,1,.485-.752,1.941,1.941,0,0,1,.986-.255q.222-.016,1.074-.017.318,0,.974.013Zm-1.028,5.237h-.736v-4.823h.736Z" transform="translate(-1800.652 -1852.692)" fill="#83a79a"/>
          <path id="Path_17" data-name="Path 17" d="M1936.776,1915.529h-.5a1.821,1.821,0,0,1-.554,1.365,1.91,1.91,0,0,1-1.386.537h-.97l-.1-.748h.949a1.307,1.307,0,0,0,.891-.31,1.123,1.123,0,0,0,.376-.841,2.82,2.82,0,0,1-1.371-.255,1.272,1.272,0,0,1-.573-1.2,1.65,1.65,0,0,1,.456-1.326,1.374,1.374,0,0,1,.89-.226,1.176,1.176,0,0,1,1.2.745,4.7,4.7,0,0,1,.193,1.512h.5Zm-1.271-.748v-.715a.944.944,0,0,0-.151-.539.538.538,0,0,0-.472-.255.5.5,0,0,0-.485.243,1.394,1.394,0,0,0-.087.581.574.574,0,0,0,.4.61A2.789,2.789,0,0,0,1935.505,1914.781Z" transform="translate(-1873.343 -1909.539)" fill="#83a79a"/>
          <path id="Path_18" data-name="Path 18" d="M2000.865,1895.514a1.274,1.274,0,0,1-.3.844.99.99,0,0,1-.79.38h-1.233v-.748a8.794,8.794,0,0,0,1.316-.046q.251-.092.251-.679c0-.1,0-.246-.006-.444s-.007-.346-.007-.444h.769Zm-.74-2.32a.514.514,0,0,1-.153.376.5.5,0,0,1-.37.155q-.573,0-.573-.531,0-.447.544-.447T2000.126,1893.194Z" transform="translate(-1935.365 -1890.749)" fill="#83a79a"/>
          <path id="Path_19" data-name="Path 19" d="M2101.292,1915.491a1.81,1.81,0,0,1-.8,1.63,1.868,1.868,0,0,1-1.045.31h-1.166a1.638,1.638,0,0,1-1.288-.589,1.984,1.984,0,0,1-.493-1.35v-1.555h.706v1.638a1.032,1.032,0,0,0,.368.819,1.27,1.27,0,0,0,.857.3h.97a1.218,1.218,0,0,0,.794-.288.911.911,0,0,0,.376-.736q0-.372-.514-.489a1.109,1.109,0,0,0-.188-.029h-1.045v-1.292a1.315,1.315,0,0,1,.372-.959,1.285,1.285,0,0,1,.958-.378h.9l.029.706h-.9a.56.56,0,0,0-.561.36,3.347,3.347,0,0,0-.092.857,4.141,4.141,0,0,1,1.187.109A.894.894,0,0,1,2101.292,1915.491Z" transform="translate(-2028.438 -1909.539)" fill="#83a79a"/>
          <path id="Path_20" data-name="Path 20" d="M2210.056,1883.124a1.938,1.938,0,0,1-1.342-.368,1.021,1.021,0,0,1-.259-.782v-3.557h.752v3.227q0,.523.175.64a1.828,1.828,0,0,0,.673.087Z" transform="translate(-2134.807 -1877.134)" fill="#83a79a"/>
          <path id="Path_21" data-name="Path 21" d="M2239.382,1902.666a1.279,1.279,0,0,1-.372.895,1.15,1.15,0,0,1-.861.4,3.307,3.307,0,0,1-1.546-.556,2.4,2.4,0,0,1-1.083.251l-.835.012v-.752h1.045a1.737,1.737,0,0,1-.414-1.037,1.176,1.176,0,0,1,1.224-1.225,1.278,1.278,0,0,1,.9.405l-.493-.51.565-.51Q2239.381,1901.822,2239.382,1902.666Zm-2.279-.736a.541.541,0,0,0-.188-.422.651.651,0,0,0-.448-.167.389.389,0,0,0-.33.172.586.586,0,0,0-.117.364q0,.489.6.723A.7.7,0,0,0,2237.1,1901.93Zm1.489.782q0-.452-1-1.455a1.039,1.039,0,0,1,.23.715.97.97,0,0,1-.464.957,1.5,1.5,0,0,0,.736.255Q2238.592,1903.184,2238.592,1902.712Z" transform="translate(-2159.728 -1897.676)" fill="#83a79a"/>
          <path id="Path_22" data-name="Path 22" d="M2381.955,1903.665a1.514,1.514,0,0,1-.719-.129,9.773,9.773,0,0,1-.786-.69,1.429,1.429,0,0,1-1.375.9,1.387,1.387,0,0,1-1.434-1.433,2.4,2.4,0,0,1,.873-1.526l-.213-.243.506-.51,2.253,2.4a2.876,2.876,0,0,0,.381.364,1.171,1.171,0,0,0,.514.117Zm-2.153-1.3a.551.551,0,0,0-.142-.414l-.606-.6a5.272,5.272,0,0,0-.439.443.928.928,0,0,0-.221.572.617.617,0,0,0,.2.474.7.7,0,0,0,.493.182.745.745,0,0,0,.5-.186A.6.6,0,0,0,2379.8,1902.365Z" transform="translate(-2295.555 -1897.676)" fill="#83a79a"/>
          <path id="Path_23" data-name="Path 23" d="M2460.41,1895.514a1.274,1.274,0,0,1-.3.844.99.99,0,0,1-.791.38h-1.232v-.748a8.806,8.806,0,0,0,1.317-.046q.251-.092.25-.679c0-.1,0-.246-.006-.444s-.006-.346-.006-.444h.77Zm-.74-2.32a.518.518,0,0,1-.152.376.5.5,0,0,1-.371.155q-.573,0-.573-.531,0-.447.543-.447T2459.67,1893.194Z" transform="translate(-2371.987 -1890.749)" fill="#83a79a"/>
          <path id="Path_24" data-name="Path 24" d="M2522.283,1883.124a1.937,1.937,0,0,1-1.342-.368,1.02,1.02,0,0,1-.259-.782v-3.557h.752v3.227q0,.523.176.64a1.823,1.823,0,0,0,.672.087Z" transform="translate(-2431.461 -1877.134)" fill="#83a79a"/>
          <path id="Path_25" data-name="Path 25" d="M2549.669,1914.116a1.679,1.679,0,0,1-.322,1.062,1.169,1.169,0,0,1-.982.456,1.354,1.354,0,0,1-.849-.284,3.767,3.767,0,0,1-1.275.18v-.748q.64,0,.749-.125a2.287,2.287,0,0,0,.046-.578q.038-1.554,1.35-1.554a1.128,1.128,0,0,1,.979.5A1.867,1.867,0,0,1,2549.669,1914.116Zm-.656-.042q0-.815-.647-.815t-.661.844q0,.782.661.781T2549.012,1914.074Z" transform="translate(-2455.744 -1909.539)" fill="#83a79a"/>
          <path id="Path_26" data-name="Path 26" d="M2632.226,1883.124a1.939,1.939,0,0,1-1.342-.368,1.019,1.019,0,0,1-.259-.782v-3.557h.752v3.227q0,.523.176.64a1.826,1.826,0,0,0,.673.087Z" transform="translate(-2535.92 -1877.134)" fill="#83a79a"/>
          <path id="Path_27" data-name="Path 27" d="M2662.076,1926.581a1.477,1.477,0,0,1-.255.9.962.962,0,0,1-.828.389,1.412,1.412,0,0,1-1.016-.506,1.215,1.215,0,0,1-.916.506,1.408,1.408,0,0,1-1.023-.6,1.3,1.3,0,0,1-.983.518h-.957v-.748h.9q.522,0,.522-.561v-1.052h.736v1.113a.566.566,0,0,0,.193.441.67.67,0,0,0,.464.173q.514,0,.514-.471v-1.256h.736v1.113a.572.572,0,0,0,.19.439.655.655,0,0,0,.458.175q.527,0,.526-.471v-1.256h.737Z" transform="translate(-2560.123 -1921.799)" fill="#83a79a"/>
        </g>
      </g>
    </g>
    <g id="Group_10" data-name="Group 10" transform="translate(678.433 498.827)">
      <path id="Path_45" data-name="Path 45" d="M1037.321,634.465c7.362-5.006,21.16,2.453,30.818,16.659q.836,1.23,1.594,2.471a58.871,58.871,0,0,0-4.009-6.831c-9.659-14.206-23.456-21.664-30.818-16.659-6.937,4.716-5.684,18.817,2.564,32.314C1031.462,650.36,1031.129,638.675,1037.321,634.465Z" transform="translate(-1014.898 -626.353)" fill="#b78e1d"/>
      <path id="Path_46" data-name="Path 46" d="M749.815,628.79H737.683a12.956,12.956,0,0,1-12.941-12.941V585.286H733v30.563a4.686,4.686,0,0,0,4.681,4.681h13.508Z" transform="translate(-724.742 -585.286)" fill="#83a79a"/>
      <path id="Path_47" data-name="Path 47" d="M1257.731,1025.524H1245.6a12.955,12.955,0,0,1-12.941-12.941v-9.362h8.26v9.362a4.686,4.686,0,0,0,4.681,4.681h13.508Z" transform="translate(-1206.892 -982.02)" fill="#83a79a"/>
      <path id="Path_48" data-name="Path 48" d="M1638.194,1599.81l-.012.006C1638.24,1599.791,1638.211,1599.8,1638.194,1599.81Z" transform="translate(-1591.844 -1548.336)" fill="#0c1241"/>
      <path id="Path_49" data-name="Path 49" d="M1789.689,1025.524h-36.8a12.956,12.956,0,0,1-12.941-12.941v-9.362h8.26v9.362a4.686,4.686,0,0,0,4.681,4.681h38.181Z" transform="translate(-1688.444 -982.02)" fill="#83a79a"/>
      <path id="Path_50" data-name="Path 50" d="M1069.911,806.183c-7.362,5.005-21.16-2.453-30.818-16.659-5.668-8.337-8.651-17.145-8.66-24.011-2.25,7.143.592,18.687,7.908,29.447,9.658,14.206,23.456,21.664,30.818,16.659,3.041-2.068,4.508-5.94,4.5-10.774A9.8,9.8,0,0,1,1069.911,806.183Z" transform="translate(-1014.211 -756.371)" fill="#f0c300"/>
      <circle id="Ellipse_1" data-name="Ellipse 1" cx="5.411" cy="5.411" r="5.411" transform="translate(15.029 0)" fill="#83a79a"/>
      <circle id="Ellipse_2" data-name="Ellipse 2" cx="5.411" cy="5.411" r="5.411" transform="translate(45.277 48.286)" fill="#83a79a"/>
      <circle id="Ellipse_3" data-name="Ellipse 3" cx="5.411" cy="5.411" r="5.411" transform="translate(37.358 48.286)" fill="#83a79a"/>
    </g>
  </g>
</svg>
