<svg id="Title_Bar_Icon___Sound_OFF" data-name="Title Bar Icon _ Sound OFF" xmlns="http://www.w3.org/2000/svg" width="33.425" height="29.5" viewBox="0 0 33.425 29.5">
  <path id="Path_6244" data-name="Path 6244" d="M18.8.1,9.3,6.5H.7a.773.773,0,0,0-.7.8V22.2a.773.773,0,0,0,.7.8H9.3l9.5,6.4a.6.6,0,0,0,.4.1.773.773,0,0,0,.8-.7V.8a.6.6,0,0,0-.1-.4A.829.829,0,0,0,18.8.1Zm-.3,27.2L10,21.6a.6.6,0,0,0-.4-.1h-8V8h8a.756.756,0,0,0,.4-.1l8.5-5.7Z" fill="#374775"/>
  <path id="Path_6245" data-name="Path 6245" d="M29.5,14.8l3.6-3.6A.778.778,0,1,0,32,10.1l-3.6,3.6L24.7,10a.778.778,0,0,0-1.1,1.1l3.6,3.6-3.6,3.6a.785.785,0,0,0,0,1.1.735.735,0,0,0,.6.2,1.421,1.421,0,0,0,.6-.2l3.6-3.6L32,19.4a.735.735,0,0,0,.6.2,1.421,1.421,0,0,0,.6-.2.785.785,0,0,0,0-1.1Z" fill="#374775"/>
</svg>
